<?xml version="1.0" encoding="UTF-8" standalone="no"?>
<!-- Created with Inkscape (http://www.inkscape.org/) -->

<svg
   version="1.1"
   id="svg2"
   width="960"
   height="960"
   viewBox="0 0 960 960"
   sodipodi:docname="cronometro1.svg"
   inkscape:version="1.3.1 (91b66b0783, 2023-11-16)"
   xmlns:inkscape="http://www.inkscape.org/namespaces/inkscape"
   xmlns:sodipodi="http://sodipodi.sourceforge.net/DTD/sodipodi-0.dtd"
   xmlns="http://www.w3.org/2000/svg"
   xmlns:svg="http://www.w3.org/2000/svg">
  <defs
     id="defs6" />
  <sodipodi:namedview
     id="namedview4"
     pagecolor="#ffffff"
     bordercolor="#000000"
     borderopacity="0.25"
     inkscape:showpageshadow="2"
     inkscape:pageopacity="0.0"
     inkscape:pagecheckerboard="0"
     inkscape:deskcolor="#d1d1d1"
     inkscape:zoom="0.60472361"
     inkscape:cx="244.73991"
     inkscape:cy="455.58003"
     inkscape:window-width="1680"
     inkscape:window-height="987"
     inkscape:window-x="1912"
     inkscape:window-y="265"
     inkscape:window-maximized="1"
     inkscape:current-layer="g8" />
  <g
     id="g8"
     inkscape:groupmode="layer"
     inkscape:label="ink_ext_XXXXXX"
     transform="matrix(1.3333333,0,0,-1.3333333,0,960)">
    <g
       id="g10"
       transform="scale(0.1)">
      <path
         d="m 1367.92,2175 c -35.23,61.46 -113.78,82.3 -175.18,47.31 -61.45,-35.38 -82.59,-113.76 -47.26,-175.22 107.11,-186.25 235.62,-360.47 381.98,-517.96 25.26,-27.26 59.6,-41 94.02,-41 31.23,0 62.61,11.33 87.32,34.29 51.87,48.31 54.88,129.42 6.62,181.34 -133.13,143.35 -250.06,301.93 -347.5,471.24"
         style="fill:#c38025;fill-opacity:1;fill-rule:nonzero;stroke:none"
         id="path12" />
      <path
         d="m 899.883,3254.43 c 1.101,0 2.195,0 3.359,0 70.817,1.91 126.758,60.76 124.948,131.62 -0.55,22.36 -0.85,44.71 -0.85,67.16 v 545.44 c 0,70.86 -57.442,128.3 -128.317,128.3 -70.863,0 -128.308,-57.44 -128.308,-128.3 v -545.44 c 0,-24.66 0.297,-49.22 0.949,-73.78 1.813,-69.66 58.844,-125 128.219,-125"
         style="fill:#c38025;fill-opacity:1;fill-rule:nonzero;stroke:none"
         id="path14" />
      <path
         d="m 1217.6,2482.26 c -73.98,180.74 -127.16,370.29 -157.98,563.37 -11.18,69.97 -76.636,117.58 -146.964,106.45 -69.965,-11.12 -117.633,-76.98 -106.449,-146.95 33.926,-212.52 92.469,-421.14 173.922,-620.11 20.341,-49.73 68.211,-79.7 118.791,-79.7 16.18,0 32.67,3.01 48.56,9.52 65.56,26.87 96.99,101.85 70.12,167.42"
         style="fill:#c38025;fill-opacity:1;fill-rule:nonzero;stroke:none"
         id="path16" />
      <path
         d="m 2454.56,1149.91 c -174.57,87.21 -339.62,194.67 -490.44,319.28 -54.58,45.11 -135.53,37.6 -180.64,-17.24 -45.11,-54.64 -37.39,-135.53 17.24,-180.64 165.75,-136.94 347.15,-255.02 539.16,-350.958 18.4,-9.223 37.95,-13.532 57.24,-13.532 47.06,0 92.43,25.961 114.88,70.969 31.68,63.361 5.96,140.441 -57.44,172.121"
         style="fill:#c38025;fill-opacity:1;fill-rule:nonzero;stroke:none"
         id="path18" />
      <path
         d="m 899.023,4229.6 c 70.875,0 128.317,57.44 128.317,128.32 v 532.99 c 0,24.47 0.95,48.62 2.86,72.59 5.56,70.66 -47.169,132.41 -117.79,138.02 -70.672,6.53 -132.426,-47.21 -138.039,-117.78 -2.402,-30.58 -3.656,-61.55 -3.656,-92.83 v -532.99 c 0,-70.88 57.445,-128.32 128.308,-128.32"
         style="fill:#c38025;fill-opacity:1;fill-rule:nonzero;stroke:none"
         id="path20" />
      <path
         d="m 3341.37,893.391 c -194.72,19.441 -386.99,61.351 -571.49,124.499 -66.86,22.75 -139.99,-12.83 -162.95,-79.89 -22.95,-67.059 12.84,-139.937 79.85,-162.898 203.09,-69.473 414.7,-115.582 628.93,-137.133 4.36,-0.399 8.72,-0.61 12.98,-0.61 65.1,0 120.89,49.332 127.52,115.481 7.06,70.582 -44.37,133.43 -114.84,140.551"
         style="fill:#c38025;fill-opacity:1;fill-rule:nonzero;stroke:none"
         id="path22" />
      <path
         d="m 6260.77,2969.04 c -69.31,15.74 -137.98,-27.07 -153.97,-96.03 -44.1,-190.27 -110.17,-375.71 -196.38,-551.05 -31.27,-63.65 -5.06,-140.54 58.49,-171.82 18.25,-8.92 37.55,-13.13 56.54,-13.13 47.36,0 92.93,26.26 115.23,71.67 94.89,192.97 167.61,396.97 216.13,606.39 15.98,69.06 -27.02,137.93 -96.04,153.97"
         style="fill:#c38025;fill-opacity:1;fill-rule:nonzero;stroke:none"
         id="path24" />
      <path
         d="m 6300.98,3942.21 c -70.88,0 -128.31,-57.44 -128.31,-128.31 v -360.58 c -0.06,-81.3 -3.86,-163 -11.38,-242.89 -6.63,-70.58 45.2,-133.13 115.78,-139.75 4.05,-0.4 8.12,-0.59 12.12,-0.59 65.46,0 121.36,49.81 127.62,116.28 8.22,87.81 12.42,177.63 12.48,266.84 v 360.69 c 0,70.87 -57.44,128.31 -128.31,128.31"
         style="fill:#c38025;fill-opacity:1;fill-rule:nonzero;stroke:none"
         id="path26" />
      <path
         d="m 6300.98,4917.38 c -70.88,0 -128.31,-57.44 -128.31,-128.31 v -615.9 c 0,-70.87 57.43,-128.31 128.31,-128.31 70.87,0 128.31,57.44 128.31,128.31 v 615.9 c 0,70.87 -57.44,128.31 -128.31,128.31"
         style="fill:#c38025;fill-opacity:1;fill-rule:nonzero;stroke:none"
         id="path28" />
      <path
         d="m 5739.5,2026.14 c -108.61,-162.39 -235.97,-312.66 -378.47,-446.59 -51.62,-48.61 -54.13,-129.81 -5.56,-181.43 25.26,-26.87 59.34,-40.41 93.48,-40.41 31.52,0 63.1,11.54 87.91,34.79 156.59,147.26 296.53,312.46 415.96,490.9 39.41,58.94 23.61,138.63 -35.28,178.03 -58.9,39.2 -138.55,23.66 -178.04,-35.29"
         style="fill:#c38025;fill-opacity:1;fill-rule:nonzero;stroke:none"
         id="path30" />
      <path
         d="m 4262.11,966.871 c -188.41,-50.129 -383.18,-78.699 -578.91,-85 -70.82,-2.211 -126.4,-61.461 -124.15,-132.332 2.26,-69.469 59.24,-124.207 128.22,-124.207 1.34,0 2.75,0 4.16,0.098 215.22,6.922 429.39,38.3 636.65,93.429 68.46,18.25 109.2,88.512 91.01,156.981 -18.19,68.473 -88.56,108.871 -156.98,91.031"
         style="fill:#c38025;fill-opacity:1;fill-rule:nonzero;stroke:none"
         id="path32" />
      <path
         d="m 5096.94,1362.02 c -159.33,-114.27 -331.31,-210.2 -511.14,-285.09 -65.41,-27.26 -96.39,-102.45 -69.12,-167.801 20.51,-49.328 68.21,-79 118.5,-79 16.43,0 33.17,3.109 49.26,9.82 197.83,82.403 386.94,187.961 562.06,313.571 57.6,41.3 70.77,121.5 29.48,179.03 -41.3,57.74 -121.45,70.78 -179.04,29.47"
         style="fill:#c38025;fill-opacity:1;fill-rule:nonzero;stroke:none"
         id="path34" />
      <path
         d="m 3780.63,6563.05 h -361.26 c -75.01,0 -135.81,-60.8 -135.81,-135.82 v -328.84 h 632.88 v 328.84 c 0,75.02 -60.81,135.82 -135.81,135.82"
         style="fill:#d1353c;fill-opacity:1;fill-rule:nonzero;stroke:none"
         id="path36" />
      <path
         d="m 3572.84,6563.05 h -134.18 c -65.58,0 -118.74,-60.8 -118.74,-135.8 v -328.86 h 184.3 v 386.2 c 0,43.34 30.73,78.46 68.62,78.46"
         style="fill:#dc6960;fill-opacity:1;fill-rule:nonzero;stroke:none"
         id="path38" />
      <path
         d="m 3780.63,6563.05 h -153.46 c 43.33,0 78.46,-35.12 78.46,-78.46 v -386.2 h 210.81 v 328.86 c 0,75 -60.81,135.8 -135.81,135.8"
         style="fill:#9d292e;fill-opacity:1;fill-rule:nonzero;stroke:none"
         id="path40" />
      <path
         d="m 3978.15,6289.27 h -756.31 c -63.21,0 -114.45,-51.25 -114.45,-114.47 v -305.42 h 985.23 v 305.42 c 0,63.22 -51.25,114.47 -114.47,114.47"
         style="fill:#878f95;fill-opacity:1;fill-rule:nonzero;stroke:none"
         id="path42" />
      <path
         d="m 3495.8,6289.27 h -219.22 c -50.58,0 -91.59,-51.26 -91.59,-114.46 v -305.42 h 256.71 v 352.29 c 0,37.32 24.22,67.59 54.1,67.59"
         style="fill:#bec0c2;fill-opacity:1;fill-rule:nonzero;stroke:none"
         id="path44" />
      <path
         d="m 3978.15,6289.27 h -273.94 c 37.33,0 67.6,-30.27 67.6,-67.59 v -352.29 h 320.81 v 305.42 c 0,63.2 -51.25,114.46 -114.47,114.46"
         style="fill:#607079;fill-opacity:1;fill-rule:nonzero;stroke:none"
         id="path46" />
      <path
         d="m 6224.97,6296.7 -659.57,267.35 c -73.9,29.97 -158.09,-5.66 -188.04,-79.56 l -181.76,-448.4 927.17,-375.84 181.77,448.4 c 29.96,73.9 -5.67,158.09 -79.57,188.05"
         style="fill:#e7b02c;fill-opacity:1;fill-rule:nonzero;stroke:none"
         id="path48" />
      <path
         d="m 5619.58,6542.1 c -66.82,13.6 -135.9,-21.59 -162.43,-87.06 l -181.76,-448.4 284.42,-115.3 198.16,488.85 c 19.13,47.2 69.89,70.19 117.92,58.01 l -256.31,103.9"
         style="fill:#f0cc76;fill-opacity:1;fill-rule:nonzero;stroke:none"
         id="path50" />
      <path
         d="m 6224.97,6296.7 -243.98,98.9 c 51.56,-20.9 76.4,-79.64 55.5,-131.21 l -198.15,-488.84 284.43,-115.29 181.77,448.39 c 29.96,73.9 -5.67,158.09 -79.57,188.05"
         style="fill:#c38025;fill-opacity:1;fill-rule:nonzero;stroke:none"
         id="path52" />
      <path
         d="m 6259.81,5823.65 -1048.79,425.14 c -62.28,25.25 -133.23,-4.78 -158.48,-67.06 l -181.81,-448.52 1274.33,-516.55 181.81,448.51 c 25.25,62.29 -4.77,133.24 -67.06,158.48"
         style="fill:#878f95;fill-opacity:1;fill-rule:nonzero;stroke:none"
         id="path54" />
      <path
         d="m 6259.8,5823.65 -370.99,150.39 c 42.76,-17.36 63.4,-66.09 46.05,-108.87 l -196.11,-483.81 406.31,-164.7 181.81,448.51 c 25.25,62.29 -4.77,133.24 -67.07,158.48"
         style="fill:#607079;fill-opacity:1;fill-rule:nonzero;stroke:none"
         id="path56" />
      <path
         d="m 5605.69,5435.37 -230.86,93.58 v 0 z"
         style="fill:#b2b5b8;fill-opacity:1;fill-rule:nonzero;stroke:none"
         id="path58" />
      <path
         d="m 5679.47,6058.89 -371,150.41 c -62.22,25 -132.94,-4.97 -158.13,-67.13 l -181.81,-448.52 406.3,-164.7 196.12,483.81 c 17.31,42.67 65.84,63.24 108.52,46.13"
         style="fill:#bec0c2;fill-opacity:1;fill-rule:nonzero;stroke:none"
         id="path60" />
      <path
         d="M 1640.37,6560.1 978.988,6297.21 c -74.093,-29.45 -110.289,-113.4 -80.828,-187.5 l 178.72,-449.62 929.7,369.55 -178.72,449.62 c -29.46,74.1 -113.4,110.29 -187.49,80.84"
         style="fill:#e7b02c;fill-opacity:1;fill-rule:nonzero;stroke:none"
         id="path62" />
      <path
         d="m 1033.32,6318.8 c -57.679,-36.36 -83.257,-109.55 -57.168,-175.2 l 178.728,-449.62 285.2,113.36 -194.84,490.18 c -18.81,47.33 1.97,99.04 45.09,123.44 L 1033.32,6318.8"
         style="fill:#f0cc76;fill-opacity:1;fill-rule:nonzero;stroke:none"
         id="path64" />
      <path
         d="m 1640.36,6560.1 -244.66,-97.24 c 51.71,20.54 110.28,-4.71 130.83,-56.42 l 194.85,-490.17 285.2,113.37 -178.72,449.62 c -29.46,74.1 -113.4,110.29 -187.5,80.84"
         style="fill:#c38025;fill-opacity:1;fill-rule:nonzero;stroke:none"
         id="path66" />
      <path
         d="M 1992.6,6242.44 940.957,5824.42 C 878.5,5799.59 848.004,5728.84 872.82,5666.4 l 178.77,-449.74 1277.8,507.92 -178.77,449.73 c -24.82,62.45 -95.57,92.95 -158.02,68.13"
         style="fill:#878f95;fill-opacity:1;fill-rule:nonzero;stroke:none"
         id="path68" />
      <path
         d="m 1992.6,6242.44 -372.01,-147.87 c 42.9,17.02 91.49,-3.92 108.55,-46.82 l 192.83,-485.12 407.42,161.95 -178.77,449.73 c -24.82,62.45 -95.58,92.96 -158.02,68.13"
         style="fill:#607079;fill-opacity:1;fill-rule:nonzero;stroke:none"
         id="path70" />
      <path
         d="m 1788.5,5509.65 -231.48,-92.01 v 0 z"
         style="fill:#b2b5b8;fill-opacity:1;fill-rule:nonzero;stroke:none"
         id="path72" />
      <path
         d="m 1410.68,6011.12 -372.02,-147.86 c -62.234,-24.95 -92.605,-95.49 -67.824,-157.83 l 178.764,-449.74 407.42,161.95 -192.84,485.12 c -17,42.8 3.84,91.2 46.5,108.36"
         style="fill:#bec0c2;fill-opacity:1;fill-rule:nonzero;stroke:none"
         id="path74" />
      <path
         d="M 5267.75,5924.13 H 1932.25 C 1362.5,5924.13 899.023,5460.6 899.023,4890.91 V 3453.21 C 899.023,1963.89 2110.67,752.25 3600,752.25 c 1489.33,0 2700.98,1211.64 2700.98,2700.96 v 1437.7 c 0,569.69 -463.49,1033.22 -1033.23,1033.22"
         style="fill:#e7b02c;fill-opacity:1;fill-rule:nonzero;stroke:none"
         id="path76" />
      <path
         d="M 5267.75,5924.13 H 1932.25 C 1362.5,5924.13 899.023,5460.6 899.023,4890.91 v -205.46 c 0,569.69 463.477,1033.22 1033.227,1033.22 h 3335.5 c 569.74,0 1033.23,-463.53 1033.23,-1033.22 v 205.46 c 0,569.69 -463.49,1033.22 -1033.23,1033.22"
         style="fill:#f0cc76;fill-opacity:1;fill-rule:nonzero;stroke:none"
         id="path78" />
      <path
         d="m 5787.72,4685.45 c 0,286.7 -233.26,519.97 -519.97,519.97 h -3335.5 c -286.71,0 -519.97,-233.27 -519.97,-519.97 v -1437.7 c 0,-1206.33 981.38,-2187.72 2187.72,-2187.72 1206.34,0 2187.72,981.39 2187.72,2187.72 v 1437.7"
         style="fill:#f0cc76;fill-opacity:1;fill-rule:nonzero;stroke:none"
         id="path80" />
      <path
         d="m 5787.72,4890.91 c 0,286.71 -233.26,519.97 -519.97,519.97 h -3335.5 c -286.71,0 -519.97,-233.26 -519.97,-519.97 v -1437.7 c 0,-1206.32 981.38,-2187.72 2187.72,-2187.72 1206.34,0 2187.72,981.4 2187.72,2187.72 v 1437.7"
         style="fill:#304f5a;fill-opacity:1;fill-rule:nonzero;stroke:none"
         id="path82" />
      <path
         d="m 3600,1470.96 c -1206.34,0 -2187.72,981.38 -2187.72,2187.72 v -205.47 c 0,-1206.32 981.38,-2187.72 2187.72,-2187.72 1206.34,0 2187.72,981.4 2187.72,2187.72 v 205.47 C 5787.72,2452.34 4806.34,1470.96 3600,1470.96"
         style="fill:#4f636d;fill-opacity:1;fill-rule:nonzero;stroke:none"
         id="path84" />
      <path
         d="m 5267.75,5410.88 h -3335.5 c -286.71,0 -519.97,-233.26 -519.97,-519.97 v -205.46 c 0,286.7 233.26,519.97 519.97,519.97 h 3335.5 c 286.71,0 519.97,-233.27 519.97,-519.97 v 205.46 c 0,286.71 -233.26,519.97 -519.97,519.97"
         style="fill:#1a2b30;fill-opacity:1;fill-rule:nonzero;stroke:none"
         id="path86" />
      <path
         d="M 5058.56,4582.78 H 2141.44 c -154.33,0 -279.89,-125.56 -279.89,-279.89 V 2994.61 c 0,-154.33 125.56,-279.88 279.89,-279.88 h 2917.12 c 154.33,0 279.89,125.55 279.89,279.88 v 1308.28 c 0,154.33 -125.56,279.89 -279.89,279.89"
         style="fill:#607079;fill-opacity:1;fill-rule:nonzero;stroke:none"
         id="path88" />
      <path
         d="M 5058.56,4428.8 H 2141.44 c -69.55,0 -125.91,-56.37 -125.91,-125.91 V 2994.61 c 0,-69.53 56.36,-125.91 125.91,-125.91 h 2917.12 c 69.54,0 125.91,56.38 125.91,125.91 v 1308.28 c 0,69.54 -56.37,125.91 -125.91,125.91"
         style="fill:#cacbcd;fill-opacity:1;fill-rule:nonzero;stroke:none"
         id="path90" />
      <path
         d="m 2363.34,3116.4 -86.4,86.39 v 344.07 l 86.4,86.39 29.26,-29.26 v -459.84 z m 0,546.23 -86.4,86.39 v 344.06 l 86.4,86.4 29.26,-29.26 v -459.84 l -29.26,-27.75"
         style="fill:#304f5a;fill-opacity:1;fill-rule:nonzero;stroke:none"
         id="path92" />
      <path
         d="m 3108.65,3662.63 -86.52,84.88 v 288.57 l 86.52,86.39 29.25,-29.39 v -402.7 z m -100.33,-72.58 h -316.31 l -58.65,57.13 58.65,58.64 h 316.31 l 58.64,-58.64 z m -359.51,-473.65 -29.38,28.12 86.39,87.65 h 317.95 L 3137.9,3116.4 Z m -57.13,57.14 -29.26,27.74 v 402.71 l 29.26,29.26 86.39,-86.39 v -286.93 z m 402.7,890.29 h -316.31 l -115.65,115.65 h 489.1 l 29.26,-29.26 -86.4,-86.39"
         style="fill:#304f5a;fill-opacity:1;fill-rule:nonzero;stroke:none"
         id="path94" />
      <path
         d="m 3319.92,3403.46 v 115.64 h 114.14 v -115.64 z m 0,438.11 v 115.77 h 114.14 v -115.77 h -114.14"
         style="fill:#304f5a;fill-opacity:1;fill-rule:nonzero;stroke:none"
         id="path96" />
      <path
         d="m 4160.79,3175.04 -86.39,84.89 v 288.56 l 86.39,86.39 29.26,-29.39 v -402.7 z m 0,487.59 -86.39,86.39 v 288.57 l 86.39,84.88 29.26,-27.75 v -402.83 z m -57.14,-546.23 h -402.7 l -29.26,29.25 86.39,86.52 h 288.56 l 84.77,-86.52 z m -57.01,948.94 h -288.56 l -86.39,86.38 29.26,29.39 h 402.7 l 27.76,-29.39 z m -402.82,-890.3 -29.26,27.75 v 402.7 l 29.26,29.39 86.52,-86.39 v -288.56 z m 0,487.59 -29.26,29.26 v 402.83 l 29.26,27.75 86.52,-84.88 v -288.57 l -86.52,-86.39"
         style="fill:#304f5a;fill-opacity:1;fill-rule:nonzero;stroke:none"
         id="path98" />
      <path
         d="m 4807.28,3232.17 v 316.32 l 86.39,86.39 29.39,-29.39 V 3116.4 Z m 86.39,430.46 -86.39,86.39 v 316.32 l 115.78,115.77 v -489.22 z m -100.2,-70.95 h -317.95 l -57.01,57.89 57.01,57.76 h 317.95 l 57.01,-57.76 z m -416.64,70.95 -29.39,29.26 v 489.22 l 115.77,-115.77 v -316.32 l -86.38,-86.39"
         style="fill:#304f5a;fill-opacity:1;fill-rule:nonzero;stroke:none"
         id="path100" />
      <path
         d="M 5058.56,4428.81 H 2141.44 c -69.55,0 -125.92,-56.38 -125.92,-125.91 v -0.01 -0.86 h 3168.96 v 0.86 0.01 c 0,69.53 -56.38,125.91 -125.92,125.91"
         style="fill:#a7abae;fill-opacity:1;fill-rule:nonzero;stroke:none"
         id="path102" />
      <path
         d="m 2823.95,4781.22 h -695.33 c -62.47,0 -113.1,50.64 -113.1,113.1 v 0 c 0,62.46 50.63,113.09 113.1,113.09 h 695.33 c 62.46,0 113.1,-50.63 113.1,-113.09 v 0 c 0,-62.46 -50.64,-113.1 -113.1,-113.1"
         style="fill:#607079;fill-opacity:1;fill-rule:nonzero;stroke:none"
         id="path104" />
      <path
         d="m 3947.67,4781.22 h -695.34 c -62.45,0 -113.09,50.64 -113.09,113.1 v 0 c 0,62.46 50.64,113.09 113.09,113.09 h 695.34 c 62.46,0 113.09,-50.63 113.09,-113.09 v 0 c 0,-62.46 -50.63,-113.1 -113.09,-113.1"
         style="fill:#607079;fill-opacity:1;fill-rule:nonzero;stroke:none"
         id="path106" />
      <path
         d="m 5071.38,4781.22 h -695.33 c -62.46,0 -113.09,50.64 -113.09,113.1 v 0 c 0,62.46 50.63,113.09 113.09,113.09 h 695.33 c 62.47,0 113.1,-50.63 113.1,-113.09 v 0 c 0,-62.46 -50.63,-113.1 -113.1,-113.1"
         style="fill:#607079;fill-opacity:1;fill-rule:nonzero;stroke:none"
         id="path108" />
      <path
         d="m 2823.95,2290.1 h -695.33 c -62.47,0 -113.1,50.63 -113.1,113.08 v 0 c 0,62.47 50.63,113.11 113.1,113.11 h 695.33 c 62.46,0 113.1,-50.64 113.1,-113.11 v 0 c 0,-62.45 -50.64,-113.08 -113.1,-113.08"
         style="fill:#607079;fill-opacity:1;fill-rule:nonzero;stroke:none"
         id="path110" />
      <path
         d="m 3947.67,2290.1 h -695.34 c -62.45,0 -113.09,50.63 -113.09,113.08 v 0 c 0,62.47 50.64,113.11 113.09,113.11 h 695.34 c 62.46,0 113.09,-50.64 113.09,-113.11 v 0 c 0,-62.45 -50.63,-113.08 -113.09,-113.08"
         style="fill:#607079;fill-opacity:1;fill-rule:nonzero;stroke:none"
         id="path112" />
      <path
         d="m 5071.38,2290.1 h -695.33 c -62.46,0 -113.09,50.63 -113.09,113.08 v 0 c 0,62.47 50.63,113.11 113.09,113.11 h 695.33 c 62.47,0 113.1,-50.64 113.1,-113.11 v 0 c 0,-62.45 -50.63,-113.08 -113.1,-113.08"
         style="fill:#607079;fill-opacity:1;fill-rule:nonzero;stroke:none"
         id="path114" />
    </g>
    <rect
       style="fill:#cacbcd;fill-opacity:1;stroke:none;stroke-width:3.75;stroke-linejoin:round;stroke-miterlimit:1.5;paint-order:fill markers stroke"
       id="rect43"
       width="316.89499"
       height="130.742"
       x="201.552"
       y="-430.203"
       transform="scale(1,-1)" />
  </g>
</svg>
